<svg width="155" height="155" viewBox="0 0 155 155" fill="none" xmlns="http://www.w3.org/2000/svg">
<g filter="url(#filter0_d)">
<circle cx="77.5" cy="73.5" r="73.5" fill="#0F6FB7"/>
<path d="M105.902 51.6827H102.19C102.187 51.6827 102.183 51.6842 102.181 51.6868C102.178 51.6895 102.176 51.693 102.176 51.6968V99.0472C102.176 100.37 102.702 101.638 103.637 102.573C104.572 103.508 105.84 104.033 107.162 104.033C108.484 104.033 109.753 103.508 110.688 102.573C111.623 101.638 112.148 100.37 112.148 99.0472V57.9289C112.148 56.2723 111.49 54.6836 110.318 53.5122C109.147 52.3408 107.558 51.6827 105.902 51.6827Z" fill="white"/>
<path d="M97.1912 99.046V45.4493C97.1912 44.6309 97.03 43.8205 96.7168 43.0644C96.4036 42.3083 95.9446 41.6212 95.3659 41.0425C94.7872 40.4638 94.1001 40.0048 93.344 39.6916C92.5879 39.3784 91.7775 39.2172 90.9591 39.2172H48.5803C46.9274 39.2172 45.3423 39.8738 44.1735 41.0425C43.0047 42.2113 42.3481 43.7965 42.3481 45.4493V100.292C42.3481 102.606 43.2674 104.826 44.9036 106.462C46.5399 108.098 48.7592 109.017 51.0732 109.017H104.491C104.514 109.018 104.538 109.013 104.559 109.004C104.581 108.995 104.601 108.982 104.618 108.965C104.634 108.949 104.648 108.929 104.657 108.907C104.666 108.885 104.67 108.862 104.67 108.838C104.67 108.799 104.657 108.761 104.633 108.73C104.609 108.699 104.575 108.677 104.537 108.667C102.429 108.088 100.568 106.834 99.2409 105.096C97.9139 103.358 97.1938 101.233 97.1912 99.046ZM52.3196 54.1744C52.3196 53.5132 52.5823 52.8791 53.0498 52.4116C53.5173 51.9441 54.1513 51.6815 54.8125 51.6815H64.7839C65.4451 51.6815 66.0792 51.9441 66.5467 52.4116C67.0142 52.8791 67.2768 53.5132 67.2768 54.1744V64.1458C67.2768 64.807 67.0142 65.441 66.5467 65.9085C66.0792 66.3761 65.4451 66.6387 64.7839 66.6387H54.8125C54.1513 66.6387 53.5173 66.3761 53.0498 65.9085C52.5823 65.441 52.3196 64.807 52.3196 64.1458V54.1744ZM84.7269 96.5531H54.8826C53.5411 96.5531 52.3897 95.5217 52.3227 94.1802C52.3065 93.8431 52.3589 93.5063 52.4766 93.1901C52.5944 92.8738 52.7752 92.5848 53.008 92.3405C53.2408 92.0962 53.5207 91.9017 53.8309 91.7688C54.1411 91.6359 54.475 91.5674 54.8125 91.5674H84.6568C85.9982 91.5674 87.1496 92.5988 87.2166 93.9403C87.2329 94.2773 87.1805 94.6142 87.0627 94.9304C86.9449 95.2466 86.7642 95.5356 86.5314 95.7799C86.2986 96.0242 86.0186 96.2187 85.7084 96.3516C85.3983 96.4845 85.0643 96.5531 84.7269 96.5531ZM84.7269 86.5816H54.8826C53.5411 86.5816 52.3897 85.5502 52.3227 84.2087C52.3065 83.8717 52.3589 83.5348 52.4766 83.2186C52.5944 82.9024 52.7752 82.6133 53.008 82.3691C53.2408 82.1248 53.5207 81.9303 53.8309 81.7974C54.1411 81.6645 54.475 81.5959 54.8125 81.5959H84.6568C85.9982 81.5959 87.1496 82.6273 87.2166 83.9688C87.2329 84.3058 87.1805 84.6427 87.0627 84.9589C86.9449 85.2751 86.7642 85.5642 86.5314 85.8085C86.2986 86.0528 86.0186 86.2472 85.7084 86.3801C85.3983 86.5131 85.0643 86.5816 84.7269 86.5816ZM84.7269 76.6102H54.8826C53.5411 76.6102 52.3897 75.5787 52.3227 74.2373C52.3065 73.9002 52.3589 73.5634 52.4766 73.2471C52.5944 72.9309 52.7752 72.6419 53.008 72.3976C53.2408 72.1533 53.5207 71.9588 53.8309 71.8259C54.1411 71.693 54.475 71.6245 54.8125 71.6244H84.6568C85.9982 71.6244 87.1496 72.6558 87.2166 73.9973C87.2329 74.3344 87.1805 74.6712 87.0627 74.9874C86.9449 75.3037 86.7642 75.5927 86.5314 75.837C86.2986 76.0813 86.0186 76.2758 85.7084 76.4087C85.3983 76.5416 85.0643 76.6101 84.7269 76.6102ZM84.7269 66.6387H74.8255C73.4841 66.6387 72.3327 65.6073 72.2657 64.2658C72.2494 63.9287 72.3018 63.5919 72.4196 63.2757C72.5374 62.9594 72.7181 62.6704 72.9509 62.4261C73.1837 62.1818 73.4637 61.9873 73.7739 61.8544C74.084 61.7215 74.418 61.653 74.7554 61.653H84.6568C85.9982 61.653 87.1496 62.6844 87.2166 64.0259C87.2329 64.3629 87.1805 64.6998 87.0627 65.016C86.9449 65.3322 86.7642 65.6212 86.5314 65.8655C86.2986 66.1098 86.0186 66.3043 85.7084 66.4372C85.3983 66.5701 85.0643 66.6387 84.7269 66.6387ZM84.7269 56.6672H74.8255C73.4841 56.6672 72.3327 55.6358 72.2657 54.2943C72.2494 53.9573 72.3018 53.6204 72.4196 53.3042C72.5374 52.988 72.7181 52.699 72.9509 52.4547C73.1837 52.2104 73.4637 52.0159 73.7739 51.883C74.084 51.7501 74.418 51.6815 74.7554 51.6815H84.6568C85.9982 51.6815 87.1496 52.7129 87.2166 54.0544C87.2329 54.3915 87.1805 54.7283 87.0627 55.0445C86.9449 55.3607 86.7642 55.6498 86.5314 55.8941C86.2986 56.1384 86.0186 56.3329 85.7084 56.4658C85.3983 56.5987 85.0643 56.6672 84.7269 56.6672Z" fill="white"/>
</g>
<defs>
<filter id="filter0_d" x="0" y="0" width="155" height="155" filterUnits="userSpaceOnUse" color-interpolation-filters="sRGB">
<feFlood flood-opacity="0" result="BackgroundImageFix"/>
<feColorMatrix in="SourceAlpha" type="matrix" values="0 0 0 0 0 0 0 0 0 0 0 0 0 0 0 0 0 0 127 0"/>
<feOffset dy="4"/>
<feGaussianBlur stdDeviation="2"/>
<feColorMatrix type="matrix" values="0 0 0 0 0.0588235 0 0 0 0 0.435294 0 0 0 0 0.717647 0 0 0 0.4 0"/>
<feBlend mode="normal" in2="BackgroundImageFix" result="effect1_dropShadow"/>
<feBlend mode="normal" in="SourceGraphic" in2="effect1_dropShadow" result="shape"/>
</filter>
</defs>
</svg>
