<svg width="32" height="32" viewBox="0 0 32 32" fill="none" xmlns="http://www.w3.org/2000/svg">
<path d="M27.4941 7.00134H26.0054C26.0039 7.00134 26.0025 7.00194 26.0014 7.00299C26.0003 7.00405 25.9998 7.00548 25.9998 7.00697V26.0013C25.9998 26.5318 26.2105 27.0405 26.5855 27.4156C26.9606 27.7906 27.4693 28.0013 27.9998 28.0013C28.5302 28.0013 29.0389 27.7906 29.414 27.4156C29.789 27.0405 29.9998 26.5318 29.9998 26.0013V9.50697C29.9998 8.84243 29.7358 8.20512 29.2659 7.73522C28.796 7.26533 28.1587 7.00134 27.4941 7.00134Z" fill="#0F6FB7"/>
<path d="M23.9999 26.0008V4.50085C23.9999 4.17255 23.9353 3.84746 23.8096 3.54414C23.684 3.24083 23.4998 2.96523 23.2677 2.73309C23.0356 2.50094 22.76 2.31679 22.4566 2.19116C22.1533 2.06552 21.8282 2.00085 21.4999 2.00085H4.49994C3.8369 2.00085 3.20101 2.26425 2.73217 2.73309C2.26333 3.20193 1.99994 3.83781 1.99994 4.50085V26.5008C1.99994 27.4291 2.36869 28.3193 3.02506 28.9757C3.68144 29.6321 4.57168 30.0008 5.49994 30.0008H26.9281C26.9375 30.0009 26.9469 29.9991 26.9557 29.9955C26.9644 29.992 26.9724 29.9867 26.9791 29.98C26.9858 29.9733 26.9911 29.9653 26.9946 29.9566C26.9982 29.9478 27 29.9384 26.9999 29.929C26.9999 29.9132 26.9947 29.898 26.9851 29.8856C26.9755 29.8731 26.962 29.8642 26.9468 29.8602C26.1009 29.6282 25.3545 29.1249 24.8222 28.4278C24.2898 27.7306 24.001 26.878 23.9999 26.0008ZM5.99994 8.00085C5.99994 7.73563 6.1053 7.48128 6.29283 7.29374C6.48037 7.10621 6.73472 7.00085 6.99994 7.00085H10.9999C11.2652 7.00085 11.5195 7.10621 11.707 7.29374C11.8946 7.48128 11.9999 7.73563 11.9999 8.00085V12.0008C11.9999 12.2661 11.8946 12.5204 11.707 12.708C11.5195 12.8955 11.2652 13.0008 10.9999 13.0008H6.99994C6.73472 13.0008 6.48037 12.8955 6.29283 12.708C6.1053 12.5204 5.99994 12.2661 5.99994 12.0008V8.00085ZM18.9999 25.0008H7.02806C6.48994 25.0008 6.02806 24.5871 6.00119 24.049C5.99467 23.9138 6.01568 23.7786 6.06293 23.6518C6.11018 23.5249 6.18269 23.409 6.27608 23.311C6.36946 23.213 6.48177 23.135 6.60619 23.0817C6.73062 23.0283 6.86457 23.0009 6.99994 23.0008H18.9718C19.5099 23.0008 19.9718 23.4146 19.9987 23.9527C20.0052 24.0879 19.9842 24.223 19.9369 24.3499C19.8897 24.4768 19.8172 24.5927 19.7238 24.6907C19.6304 24.7887 19.5181 24.8667 19.3937 24.92C19.2693 24.9733 19.1353 25.0008 18.9999 25.0008ZM18.9999 21.0008H7.02806C6.48994 21.0008 6.02806 20.5871 6.00119 20.049C5.99467 19.9138 6.01568 19.7786 6.06293 19.6518C6.11018 19.5249 6.18269 19.409 6.27608 19.311C6.36946 19.213 6.48177 19.135 6.60619 19.0817C6.73062 19.0284 6.86457 19.0009 6.99994 19.0008H18.9718C19.5099 19.0008 19.9718 19.4146 19.9987 19.9527C20.0052 20.0879 19.9842 20.2231 19.9369 20.3499C19.8897 20.4768 19.8172 20.5927 19.7238 20.6907C19.6304 20.7887 19.5181 20.8667 19.3937 20.92C19.2693 20.9733 19.1353 21.0008 18.9999 21.0008ZM18.9999 17.0008H7.02806C6.48994 17.0008 6.02806 16.5871 6.00119 16.049C5.99467 15.9138 6.01568 15.7786 6.06293 15.6518C6.11018 15.5249 6.18269 15.409 6.27608 15.311C6.36946 15.213 6.48177 15.135 6.60619 15.0817C6.73062 15.0284 6.86457 15.0009 6.99994 15.0008H18.9718C19.5099 15.0008 19.9718 15.4146 19.9987 15.9527C20.0052 16.0879 19.9842 16.2231 19.9369 16.3499C19.8897 16.4768 19.8172 16.5927 19.7238 16.6907C19.6304 16.7887 19.5181 16.8667 19.3937 16.92C19.2693 16.9733 19.1353 17.0008 18.9999 17.0008ZM18.9999 13.0008H15.0281C14.4899 13.0008 14.0281 12.5871 14.0012 12.049C13.9947 11.9138 14.0157 11.7786 14.0629 11.6518C14.1102 11.5249 14.1827 11.409 14.2761 11.311C14.3695 11.213 14.4818 11.135 14.6062 11.0817C14.7306 11.0284 14.8646 11.0009 14.9999 11.0008H18.9718C19.5099 11.0008 19.9718 11.4146 19.9987 11.9527C20.0052 12.0879 19.9842 12.2231 19.9369 12.3499C19.8897 12.4768 19.8172 12.5927 19.7238 12.6907C19.6304 12.7887 19.5181 12.8667 19.3937 12.92C19.2693 12.9733 19.1353 13.0008 18.9999 13.0008ZM18.9999 9.00085H15.0281C14.4899 9.00085 14.0281 8.5871 14.0012 8.04898C13.9947 7.91377 14.0157 7.77864 14.0629 7.65179C14.1102 7.52494 14.1827 7.409 14.2761 7.311C14.3695 7.213 14.4818 7.13498 14.6062 7.08167C14.7306 7.02836 14.8646 7.00086 14.9999 7.00085H18.9718C19.5099 7.00085 19.9718 7.4146 19.9987 7.95273C20.0052 8.08794 19.9842 8.22306 19.9369 8.34991C19.8897 8.47676 19.8172 8.5927 19.7238 8.6907C19.6304 8.7887 19.5181 8.86672 19.3937 8.92003C19.2693 8.97334 19.1353 9.00084 18.9999 9.00085Z" fill="#0F6FB7"/>
</svg>
